<svg width="33" height="39" viewBox="0 0 33 39" fill="none" xmlns="http://www.w3.org/2000/svg">
<path d="M27.5897 20.6101C27.5708 17.4134 29.0296 15.0041 31.9755 13.2276C30.3279 10.884 27.8352 9.59494 24.5494 9.34651C21.4382 9.10277 18.0343 11.1464 16.788 11.1464C15.4708 11.1464 12.4588 9.43088 10.0888 9.43088C5.19785 9.50588 0 13.3026 0 21.0273C0 23.31 0.420172 25.6678 1.26051 28.0958C2.38412 31.2925 6.43476 39.125 10.6601 38.9985C12.8695 38.9469 14.4322 37.4423 17.3073 37.4423C20.0974 37.4423 21.5421 38.9985 24.0064 38.9985C28.2695 38.9375 31.933 31.8175 33 28.6114C27.2828 25.9349 27.5897 20.7742 27.5897 20.6101V20.6101ZM22.6279 6.31382C25.0215 3.49205 24.8043 0.923402 24.7335 0C22.6185 0.12187 20.173 1.42963 18.7803 3.03738C17.2459 4.76232 16.3442 6.89504 16.5378 9.29964C18.8227 9.47307 20.9094 8.30593 22.6279 6.31382V6.31382Z" fill="black"/>
</svg>
