<svg width="780" height="467" viewBox="0 0 780 467" fill="none" xmlns="http://www.w3.org/2000/svg">
<path d="M100 467L728.5 54.5L0 68L100 467Z" fill="url(#paint0_linear_22_64)"/>
<path d="M722 92L726.013 70.3512L741.985 85.5066L732.507 65.6335L754.336 68.5066L734.987 58L754.336 47.4934L732.507 50.3665L741.985 30.4934L726.013 45.6488L722 24L717.987 45.6488L702.015 30.4934L711.493 50.3665L689.664 47.4934L709.013 58L689.664 68.5066L711.493 65.6335L702.015 85.5066L717.987 70.3512L722 92Z" fill="#09FCFC"/>
<g filter="url(#filter0_f_22_64)">
<circle r="34" transform="matrix(1 0 0 -1 722 58)" fill="#09FCFC"/>
</g>
<defs>
<filter id="filter0_f_22_64" x="664" y="0" width="116" height="116" filterUnits="userSpaceOnUse" color-interpolation-filters="sRGB">
<feFlood flood-opacity="0" result="BackgroundImageFix"/>
<feBlend mode="normal" in="SourceGraphic" in2="BackgroundImageFix" result="shape"/>
<feGaussianBlur stdDeviation="12" result="effect1_foregroundBlur_22_64"/>
</filter>
<linearGradient id="paint0_linear_22_64" x1="729" y1="54.4999" x2="52.5" y2="278.5" gradientUnits="userSpaceOnUse">
<stop stop-color="#18B7B2"/>
<stop offset="1" stop-color="#18B7B2" stop-opacity="0"/>
</linearGradient>
</defs>
</svg>
