<svg width="23" height="20" viewBox="0 0 23 20" fill="none" xmlns="http://www.w3.org/2000/svg">
<path d="M0.821429 20C0.603572 20 0.394639 19.9122 0.240591 19.7559C0.0865431 19.5996 0 19.3877 0 19.1667V0.833333C0 0.61232 0.0865431 0.400358 0.240591 0.244078C0.394639 0.0877975 0.603572 0 0.821429 0H22.1786C22.3964 0 22.6054 0.0877975 22.7594 0.244078C22.9135 0.400358 23 0.61232 23 0.833333V19.1667C23 19.3877 22.9135 19.5996 22.7594 19.7559C22.6054 19.9122 22.3964 20 22.1786 20H0.821429ZM8.92071 14.05L7.15136 12.255C6.99732 12.0988 6.78842 12.011 6.57061 12.011C6.35279 12.011 6.1439 12.0988 5.98986 12.255L1.64286 16.6683H21.6315L15.4166 9.10167C15.3395 9.00759 15.2429 8.93189 15.1338 8.87993C15.0246 8.82798 14.9055 8.80104 14.7849 8.80104C14.6643 8.80104 14.5452 8.82798 14.436 8.87993C14.3269 8.93189 14.2303 9.00759 14.1532 9.10167L10.1331 13.995C10.06 14.084 9.9694 14.1565 9.86708 14.208C9.76476 14.2595 9.65298 14.2887 9.53889 14.2939C9.4248 14.2991 9.3109 14.2801 9.20446 14.2381C9.09802 14.1961 9.00138 14.132 8.92071 14.05V14.05ZM4.92857 6.66667C4.92868 6.99508 4.99255 7.32026 5.11653 7.62363C5.24051 7.927 5.42218 8.20263 5.65117 8.43478C5.88015 8.66693 6.15196 8.85104 6.45108 8.97662C6.7502 9.1022 7.07078 9.16678 7.3945 9.16667C7.71822 9.16656 8.03875 9.10176 8.33779 8.97598C8.63683 8.8502 8.90852 8.6659 9.13735 8.4336C9.36618 8.2013 9.54767 7.92555 9.67146 7.62209C9.79524 7.31863 9.85889 6.99341 9.85879 6.665C9.85857 6.00174 9.59864 5.36573 9.13619 4.89689C8.67374 4.42805 8.04664 4.16478 7.39286 4.165C6.73907 4.16522 6.11215 4.42891 5.65 4.89807C5.18786 5.36722 4.92835 6.0034 4.92857 6.66667Z" fill="url(#paint0_linear_312_500)"/>
<defs>
<linearGradient id="paint0_linear_312_500" x1="11.5" y1="5.65499e-07" x2="28" y2="28" gradientUnits="userSpaceOnUse">
<stop stop-color="#1EA0E9"/>
<stop offset="0.0001" stop-color="#1EA0E9"/>
<stop offset="0.90625" stop-color="#11E89A"/>
</linearGradient>
</defs>
</svg>
