<svg width="22" height="22" viewBox="0 0 22 22" fill="none" xmlns="http://www.w3.org/2000/svg">
<g clip-path="url(#clip0_315_608)">
<path d="M11 1.375C11 1.01033 11.1449 0.660591 11.4027 0.402728C11.6606 0.144866 12.0103 0 12.375 0L20.625 0C20.9897 0 21.3394 0.144866 21.5973 0.402728C21.8551 0.660591 22 1.01033 22 1.375V20.625C22 20.9897 21.8551 21.3394 21.5973 21.5973C21.3394 21.8551 20.9897 22 20.625 22H12.375C12.0103 22 11.6606 21.8551 11.4027 21.5973C11.1449 21.3394 11 20.9897 11 20.625V1.375ZM12.375 19.9375C12.375 20.1198 12.4474 20.2947 12.5764 20.4236C12.7053 20.5526 12.8802 20.625 13.0625 20.625C13.2448 20.625 13.4197 20.5526 13.5486 20.4236C13.6776 20.2947 13.75 20.1198 13.75 19.9375C13.75 19.7552 13.6776 19.5803 13.5486 19.4514C13.4197 19.3224 13.2448 19.25 13.0625 19.25C12.8802 19.25 12.7053 19.3224 12.5764 19.4514C12.4474 19.5803 12.375 19.7552 12.375 19.9375ZM15.125 19.9375C15.125 20.1198 15.1974 20.2947 15.3264 20.4236C15.4553 20.5526 15.6302 20.625 15.8125 20.625C15.9948 20.625 16.1697 20.5526 16.2986 20.4236C16.4276 20.2947 16.5 20.1198 16.5 19.9375C16.5 19.7552 16.4276 19.5803 16.2986 19.4514C16.1697 19.3224 15.9948 19.25 15.8125 19.25C15.6302 19.25 15.4553 19.3224 15.3264 19.4514C15.1974 19.5803 15.125 19.7552 15.125 19.9375ZM13.0625 1.375C12.8802 1.375 12.7053 1.44743 12.5764 1.57636C12.4474 1.7053 12.375 1.88016 12.375 2.0625C12.375 2.24484 12.4474 2.4197 12.5764 2.54864C12.7053 2.67757 12.8802 2.75 13.0625 2.75H19.9375C20.1198 2.75 20.2947 2.67757 20.4236 2.54864C20.5526 2.4197 20.625 2.24484 20.625 2.0625C20.625 1.88016 20.5526 1.7053 20.4236 1.57636C20.2947 1.44743 20.1198 1.375 19.9375 1.375H13.0625ZM12.375 4.8125C12.375 4.99484 12.4474 5.1697 12.5764 5.29864C12.7053 5.42757 12.8802 5.5 13.0625 5.5H19.9375C20.1198 5.5 20.2947 5.42757 20.4236 5.29864C20.5526 5.1697 20.625 4.99484 20.625 4.8125C20.625 4.63016 20.5526 4.4553 20.4236 4.32636C20.2947 4.19743 20.1198 4.125 19.9375 4.125H13.0625C12.8802 4.125 12.7053 4.19743 12.5764 4.32636C12.4474 4.4553 12.375 4.63016 12.375 4.8125ZM2.0625 2.75C1.51549 2.75 0.990886 2.9673 0.604092 3.35409C0.217298 3.74089 0 4.26549 0 4.8125L0 14.4375C0 14.9845 0.217298 15.5091 0.604092 15.8959C0.990886 16.2827 1.51549 16.5 2.0625 16.5H8.25V19.25H7.5625C7.38016 19.25 7.2053 19.3224 7.07636 19.4514C6.94743 19.5803 6.875 19.7552 6.875 19.9375C6.875 20.1198 6.94743 20.2947 7.07636 20.4236C7.2053 20.5526 7.38016 20.625 7.5625 20.625H9.625V15.125H2.0625C1.88016 15.125 1.7053 15.0526 1.57636 14.9236C1.44743 14.7947 1.375 14.6198 1.375 14.4375V4.8125C1.375 4.63016 1.44743 4.4553 1.57636 4.32636C1.7053 4.19743 1.88016 4.125 2.0625 4.125H9.625V2.75H2.0625Z" fill="url(#paint0_linear_315_608)"/>
</g>
<defs>
<linearGradient id="paint0_linear_315_608" x1="11" y1="0" x2="11" y2="22" gradientUnits="userSpaceOnUse">
<stop stop-color="#04D2FF"/>
<stop offset="1" stop-color="#7682EC"/>
</linearGradient>
<clipPath id="clip0_315_608">
<rect width="22" height="22" fill="white"/>
</clipPath>
</defs>
</svg>
