<?xml version="1.0" ?><svg style="fill: rgba(0, 255, 240, 0.69); stroke: rgba(0, 255, 240, 0.69);" version="1.1" viewBox="0 0 128 128" xml:space="preserve" xmlns="http://www.w3.org/2000/svg" xmlns:xlink="http://www.w3.org/1999/xlink"><g id="Layer_1"/><g id="refrigerator"/><g id="washer"/><g id="tv"/><g id="microwawe"/><g id="vacuum_cleaner"/><g id="Gift"/><g id="umbrella"/><g id="rocket"/><g id="basket"/><g id="shopping"/><g id="email"><g><g><path d="M112,105H16c-5.514,0-10-4.486-10-10V30c0-5.514,4.486-10,10-10h96c5.514,0,10,4.486,10,10v65     C122,100.514,117.514,105,112,105z M16,24c-3.309,0-6,2.691-6,6v65c0,3.309,2.691,6,6,6h96c3.309,0,6-2.691,6-6V30     c0-3.309-2.691-6-6-6H16z" style="fill: rgba(0, 255, 240, 0.69);"/></g><g><path d="M64,65.04c-1.207,0-2.415-0.367-3.456-1.101L8.003,33.734c-0.957-0.551-1.287-1.773-0.737-2.731     c0.552-0.957,1.774-1.284,2.731-0.737l52.816,30.379c0.711,0.521,1.662,0.521,2.373,0l0.188-0.123l52.629-30.256     c0.96-0.548,2.181-0.22,2.731,0.737c0.55,0.958,0.22,2.181-0.737,2.731L67.456,63.939C66.415,64.673,65.207,65.04,64,65.04z" style="fill:rgba(0, 255, 240, 0.69);"/></g></g></g><g id="message"/><g id="delivery"/><g id="store"/><g id="label"/><g id="phone"/><g id="imac"/><g id="laptop"/><g id="heart_like"/><g id="game"/><g id="wallet"/><g id="camera"/><g id="battery"/><g id="shoes"/><g id="t-shirt"/><g id="pencil"/><g id="people"/><g id="statistics"/><g id="blog"/><g id="rock"/><g id="like"/><g id="dislike"/><g id="speaker"/><g id="pc"/><g id="glasses"/><g id="headphones"/><g id="player"/><g id="book"/><g id="transfer"/><g id="mouse"/><g id="package"/><g id="exellent"/><g id="card"/><g id="induction"/><g id="revers_camera"/><g id="flesh_drive"/><g id="time"/><g id="sale"/><g id="tablet"/><g id="search"/></svg>