<svg width="18" height="21" viewBox="0 0 18 21" fill="none" xmlns="http://www.w3.org/2000/svg">
<path d="M5.57743 2.04428C4.3529 2.38176 3.13669 2.74873 1.92986 3.14485C1.81966 3.18055 1.7217 3.24648 1.64715 3.33513C1.57259 3.42379 1.52443 3.5316 1.50815 3.64628C0.795864 8.99099 2.44158 12.8906 4.40486 15.4594C5.23609 16.5579 6.22724 17.5257 7.34529 18.3304C7.79014 18.6441 8.18357 18.8704 8.49343 19.0157C8.64771 19.089 8.77371 19.1378 8.87014 19.1674C8.91232 19.1822 8.9558 19.193 9 19.1996C9.04368 19.1925 9.08669 19.1817 9.12857 19.1674C9.22629 19.1378 9.35229 19.089 9.50657 19.0157C9.81514 18.8704 10.2099 18.6428 10.6547 18.3304C11.7727 17.5256 12.7639 16.5579 13.5951 15.4594C15.5584 12.8918 17.2041 8.99099 16.4919 3.64628C16.4757 3.53154 16.4276 3.42366 16.353 3.33498C16.2785 3.24631 16.1804 3.18042 16.0701 3.14485C15.2331 2.871 13.8201 2.42486 12.4226 2.04557C10.9954 1.65857 9.68271 1.37186 9 1.37186C8.31857 1.37186 7.00457 1.65857 5.57743 2.04557V2.04428ZM5.23543 0.719999C6.63043 0.340714 8.11286 0 9 0C9.88714 0 11.3696 0.340714 12.7646 0.719999C14.1917 1.10571 15.6304 1.56214 16.4764 1.83857C16.8301 1.95538 17.1437 2.1696 17.3812 2.45661C17.6186 2.74363 17.7703 3.09181 17.8187 3.46114C18.585 9.21728 16.8069 13.4833 14.6494 16.3054C13.7346 17.5127 12.6437 18.5758 11.4133 19.4593C10.9878 19.765 10.537 20.0338 10.0659 20.2628C9.70586 20.4326 9.31886 20.5714 9 20.5714C8.68114 20.5714 8.29543 20.4326 7.93414 20.2628C7.46295 20.0338 7.01217 19.765 6.58672 19.4593C5.35632 18.5758 4.26547 17.5126 3.35058 16.3054C1.19315 13.4833 -0.584993 9.21728 0.181293 3.46114C0.229748 3.09181 0.381405 2.74363 0.618842 2.45661C0.85628 2.1696 1.16987 1.95538 1.52358 1.83857C2.75168 1.4359 3.98933 1.06293 5.23543 0.719999V0.719999Z" fill="#58409D"/>
<path d="M10.9284 8.357C10.9286 8.75599 10.8051 9.14523 10.5748 9.47106C10.3446 9.7969 10.0189 10.0433 9.64272 10.1763L10.1377 12.7349C10.1557 12.8279 10.1529 12.9238 10.1295 13.0157C10.1061 13.1075 10.0627 13.1931 10.0024 13.2662C9.94207 13.3393 9.86632 13.3981 9.78058 13.4385C9.69483 13.4789 9.60122 13.4999 9.50643 13.4999H8.49329C8.39861 13.4997 8.30514 13.4786 8.21955 13.4381C8.13397 13.3976 8.05838 13.3388 7.99819 13.2657C7.93801 13.1926 7.89471 13.1071 7.87139 13.0153C7.84806 12.9236 7.8453 12.8278 7.86329 12.7349L8.357 10.1763C8.0237 10.0584 7.72919 9.85125 7.50567 9.57736C7.28216 9.30346 7.13823 8.97339 7.08961 8.62322C7.041 8.27305 7.08957 7.91626 7.23002 7.59183C7.37046 7.2674 7.59739 6.98782 7.88599 6.78363C8.17459 6.57945 8.51376 6.45852 8.86644 6.43406C9.21911 6.40961 9.57173 6.48256 9.88575 6.64495C10.1998 6.80735 10.4631 7.05293 10.647 7.35487C10.8309 7.6568 10.9282 8.00348 10.9284 8.357V8.357Z" fill="#442684"/>
</svg>
