<svg width="29" height="30" viewBox="0 0 29 30" fill="none" xmlns="http://www.w3.org/2000/svg">
<g clip-path="url(#clip0_311_570)">
<path d="M13.545 11.5596L13.6028 13.8115C14.2195 13.8056 16.1622 13.937 16.1301 12.6634C16.0954 11.3347 14.162 11.5547 13.545 11.5596V11.5596ZM13.6316 14.9483L13.6945 17.4305C14.4362 17.4232 16.7645 17.561 16.7288 16.1611C16.6912 14.7007 14.3723 14.9412 13.6316 14.9483V14.9483Z" fill="#F7931B"/>
<path d="M11.8287 4.962C6.62254 6.357 3.56057 11.8104 4.98941 17.1428C6.41824 22.4753 11.7967 25.6671 17.0029 24.2721C22.2091 22.8771 25.271 17.4238 23.8422 12.0913C22.4133 6.75878 17.0349 3.56701 11.8287 4.962ZM18.1552 12.1405C18.2346 12.5162 18.1905 12.9067 18.0298 13.2512C17.869 13.5958 17.6007 13.8751 17.2664 14.0457C17.5254 14.0805 17.7752 14.1696 18 14.3073C18.2248 14.4451 18.4199 14.6285 18.5728 14.8461C18.7257 15.0637 18.8332 15.3108 18.8886 15.5717C18.9439 15.8326 18.9459 16.1017 18.8943 16.3621C18.78 18.1448 17.5057 18.6342 15.6703 18.7596L15.7179 20.6303L14.6242 20.6398L14.5774 18.7948C14.2864 18.7982 13.9954 18.7979 13.7043 18.7939L13.7515 20.648L12.6591 20.6582L12.6114 18.7835C12.3551 18.7849 12.0947 18.7822 11.8298 18.7849L10.4067 18.7978L10.5898 17.449C10.5898 17.449 11.3995 17.4546 11.3841 17.4421L11.3891 17.4418C11.4397 17.4441 11.4902 17.4361 11.5376 17.4183C11.585 17.4005 11.6284 17.3733 11.6653 17.3382C11.7022 17.3031 11.7318 17.2609 11.7525 17.2139C11.7733 17.1669 11.7846 17.1161 11.786 17.0644L11.6557 11.9893C11.6313 11.8394 11.5506 11.7044 11.4309 11.6132C11.3111 11.522 11.1617 11.4816 11.0146 11.5009C11.0268 11.4862 10.2206 11.5087 10.2206 11.5087L10.1889 10.3044L11.6968 10.2915L11.6974 10.2976C11.924 10.2948 12.1567 10.2883 12.3931 10.2809L12.3455 8.42887L13.4391 8.41937L13.485 10.2346C13.7769 10.2267 14.0704 10.2174 14.3586 10.2147L14.3118 8.41112L15.4055 8.40162L15.4522 10.2539C16.867 10.3684 17.9968 10.8066 18.1552 12.1405V12.1405Z" fill="#F7931B"/>
</g>
<defs>
<clipPath id="clip0_311_570">
<rect width="23.4214" height="23.9896" fill="white" transform="translate(0 6.06201) rotate(-15)"/>
</clipPath>
</defs>
</svg>
