<svg width="29" height="23" viewBox="0 0 29 23" fill="none" xmlns="http://www.w3.org/2000/svg">
<path d="M24.2422 0.31595C24.6681 -0.105309 25.3569 -0.105309 25.742 0.315905L28.642 3.19191C28.8867 3.39415 29 3.66876 29 3.9546C29 4.24089 28.8867 4.51685 28.642 4.67865L25.742 7.55505C25.3569 8.01348 24.6681 8.01348 24.2422 7.55505C23.8208 7.17303 23.8208 6.48988 24.2422 6.06741L25.2889 4.99325H17.4C16.7973 4.99325 16.3125 4.54831 16.3125 3.9546C16.3125 3.3591 16.7973 2.87595 17.4 2.87595L25.2889 2.83595L24.2422 1.84134C23.8208 1.42022 23.8208 0.737073 24.2422 0.31595V0.31595ZM4.71703 16.9034L3.71291 17.9775L11.5592 17.9371C12.2027 17.9371 12.6467 18.4584 12.6467 19.0157C12.6467 19.6494 12.2027 20.0944 11.5592 20.0944L3.71336 20.1348L4.71703 21.1685C5.17922 21.591 5.17922 22.2742 4.71703 22.6562C4.33188 23.1146 3.64313 23.1146 3.21855 22.6562L0.318502 19.7798C0.11455 19.618 -4.52991e-05 19.3438 1.34328e-08 19.0157C1.34328e-08 18.7685 0.114595 18.4944 0.318547 18.2921L3.21855 15.4157C3.64313 14.9978 4.33188 14.9978 4.71703 15.4157C5.17922 15.8382 5.17922 16.5213 4.71703 16.9034V16.9034ZM4.30922 2.8764H15.3111C15.1389 3.1991 15.0438 3.56584 15.0438 3.9146C15.0438 5.24494 16.0995 6.25168 17.4 6.25168H21.7998C21.9494 7.07865 22.4252 7.75281 23.0822 8.17528C23.1592 8.28314 23.2498 8.38651 23.345 8.48539C24.2648 9.39775 25.7602 9.39775 26.68 8.48539L27.55 7.61797V17.2584C27.55 18.8449 26.2495 20.1348 24.65 20.1348H13.6889C13.8611 19.8112 13.9155 19.4472 13.9155 19.0157C13.9155 17.7663 12.9005 16.6787 11.5592 16.6787L7.20016 16.7191C7.04609 15.9326 6.57484 15.2584 5.91781 14.836C5.84078 14.7281 5.75016 14.6247 5.655 14.5258C4.73516 13.6135 3.24166 13.6135 2.32136 14.5258L1.40922 15.3933V5.7528C1.40922 4.16404 2.7482 2.8764 4.30922 2.8764ZM4.30922 8.62921C5.94953 8.62921 7.20922 7.33932 7.20922 5.7528H4.30922V8.62921ZM24.65 17.2584V14.382C23.0505 14.382 21.75 15.6719 21.75 17.2584H24.65ZM14.4592 15.8202C16.9016 15.8202 18.85 13.8876 18.85 11.5056C18.85 9.08314 16.9016 7.19101 14.4592 7.19101C12.0577 7.19101 10.1092 9.08314 10.1092 11.5056C10.1092 13.8876 12.0577 15.8202 14.4592 15.8202Z" fill="url(#paint0_linear_315_542)"/>
<defs>
<linearGradient id="paint0_linear_315_542" x1="14.5" y1="0" x2="14.5" y2="23" gradientUnits="userSpaceOnUse">
<stop stop-color="#1A8A1F"/>
<stop offset="1" stop-color="#1ABCB2"/>
</linearGradient>
</defs>
</svg>
