<svg width="96" height="72" viewBox="0 0 96 72" fill="none" xmlns="http://www.w3.org/2000/svg">
<path d="M90.1148 25.6128C99.6188 12.0192 92.438 1.5552 92.438 1.5552C67.9868 -5.2512 54.5948 15.7152 54.5948 15.7152C51.6764 16.2816 49.9388 16.0992 49.9388 16.0992C37.4972 8.5248 26.8316 11.4432 26.8316 11.4432C22.9532 8.1408 17.7116 7.5648 17.7116 7.5648C17.126 11.2416 17.9036 17.8368 17.9036 17.8368C14.8028 20.1792 9.1772 27.9456 9.1772 27.9456L1.8044 30.6528C-1.1236 32.016 4.5116 32.4 4.5116 32.4C2.1884 35.3184 7.6316 31.4304 6.662 33.5712C5.6924 35.7024 8.2076 34.5408 8.2076 34.5408C9.9548 32.2176 9.9548 34.5408 9.9548 34.5408C14.0252 43.6608 22.7708 47.7408 22.7708 47.7408C30.1436 69.4752 32.8604 67.152 32.8604 67.152C36.95 69.2928 35.0012 66.576 35.0012 66.576C34.7996 64.8192 35.5676 65.6064 35.5676 65.6064C39.2636 66.192 37.1324 63.8592 37.1324 63.8592C34.406 63.6672 35.5676 62.3136 35.5676 62.3136C38.294 63.0816 42.566 58.4256 42.566 58.4256C42.758 62.496 42.758 70.2528 42.758 70.2528C43.1516 71.616 46.8284 71.8176 46.8284 71.8176C46.8284 71.8176 48.7772 71.8176 50.8988 71.8176C53.0396 71.8176 51.1004 69.6864 51.1004 69.6864C52.07 69.3024 51.1004 68.1312 51.1004 68.1312C47.2124 68.1312 48.9692 66.9696 48.9692 66.9696C53.6252 61.536 61.7852 55.3152 61.7852 55.3152C66.2492 51.6288 68.1788 56.8704 68.1788 56.8704C70.5116 61.92 69.7436 56.8704 69.7436 56.8704C69.1484 52.9824 71.0972 55.5072 71.0972 55.5072C76.5212 59.0016 72.4508 54.1536 72.4508 54.1536C70.3196 51.0432 74.5916 52.0128 74.5916 52.0128C76.5212 51.6288 75.1772 50.8512 75.1772 50.8512L71.2988 49.8816L70.9052 47.9328C81.3788 38.4192 90.1148 25.6128 90.1148 25.6128ZM24.8828 12.7968C24.8828 12.7968 24.5084 14.16 20.2364 14.7456C20.2364 14.7456 19.8428 14.1504 19.8428 10.6752C19.8428 10.6656 24.3068 11.4432 24.8828 12.7968ZM35.7596 60.3456C34.9916 60.3456 30.71 63.456 28.9628 58.2144C27.2156 52.9728 26.438 50.4576 26.438 50.4576C26.438 50.4576 32.0732 57.2448 40.4252 57.4464C40.4252 57.456 36.5372 60.3456 35.7596 60.3456ZM46.2428 65.7984C46.2428 65.7984 46.8188 60.1632 46.2428 57.6384C46.2428 57.6384 50.1308 58.416 55.1708 57.0528C55.1708 57.0528 49.3532 60.7392 46.2428 65.7984ZM68.5628 46.7712C68.5628 46.7712 67.4108 48.5184 66.038 45.6096L60.6044 36.1056C60.6044 36.1056 58.4732 34.1568 59.8172 36.6816C61.1804 39.2064 62.7356 42.1152 62.7356 42.1152C62.7356 42.1152 65.462 47.3568 65.27 50.0736C65.27 50.0736 60.6044 52.2048 45.2732 46.1856C45.2732 46.1856 51.6764 51.2352 56.5244 52.4064C56.5244 52.4064 61.574 53.1744 56.1404 54.3456C56.1404 54.3456 35.366 59.7792 27.2156 48.1248C27.2156 48.1248 24.8828 46.5792 27.8012 45.9936C27.8012 45.9936 32.6588 44.2464 33.2348 41.3376C33.2348 41.3376 24.1148 46.9728 19.0556 42.3072C19.0556 42.3072 8.39 33.7632 10.1276 29.3088C10.1276 29.3088 21.1964 6.5952 50.6876 18.432C50.6876 18.432 53.2316 19.392 45.062 21.9264C45.062 21.9264 56.1212 20.7648 58.646 21.1488C58.646 21.1488 51.4748 20.3712 58.454 14.352C58.454 14.352 68.9372 -0.787204 89.5004 2.3232C89.5004 2.3232 92.8028 11.2416 81.9452 6C81.9452 6 80.198 6.7872 81.5516 7.5648C82.9148 8.3328 91.4588 12.9888 91.4588 4.2528C91.4588 4.2528 95.7308 16.4832 86.6012 27.1584C86.6108 27.168 70.8956 45.0144 68.5628 46.7712Z" fill="url(#paint0_linear_114_551)"/>
<path d="M89.9134 14.5536C86.0254 11.8368 80.5918 19.6032 80.5918 19.6032L83.1262 19.9968L82.9246 26.784C91.0846 26.976 89.9134 14.5536 89.9134 14.5536ZM88.5502 16.0992C88.5502 16.0992 89.1454 24.0576 84.6622 24.0576L84.2878 18.24C84.2878 18.24 86.419 14.5536 88.5502 16.0992Z" fill="white"/>
<path d="M68.1689 9.88794C67.1129 9.88794 66.2393 10.7615 66.2393 11.8367C66.2393 12.9023 67.1033 13.7663 68.1689 13.7663C69.2537 13.7663 70.1177 12.9023 70.1177 11.8367C70.1177 10.7615 69.2537 9.88794 68.1689 9.88794Z" fill="white"/>
<defs>
<linearGradient id="paint0_linear_114_551" x1="47.9996" y1="0.195801" x2="47.9996" y2="71.8176" gradientUnits="userSpaceOnUse">
<stop stop-color="white"/>
<stop offset="1" stop-color="#6B87CA"/>
</linearGradient>
</defs>
</svg>
