<svg width="99" height="66" viewBox="0 0 99 66" fill="none" xmlns="http://www.w3.org/2000/svg">
<path d="M98.8844 20.8102C98.6818 20.0694 98.1414 19.598 97.6011 19.1265C90.9818 13.8061 81.4581 13.2 73.8256 17.7122C72.6773 18.3857 71.5291 19.1939 70.3808 20.002C69.165 20.8775 67.9492 21.7531 66.6659 22.4265C65.9905 22.7633 62.3431 24.9184 57.4124 27.8816C54.1703 23.0327 53.2247 20.5408 46.5378 20.3388C45.5922 20.2714 47.4159 25.1204 47.4159 32.9327C42.4852 35.5592 31.4755 37.7143 25.7343 35.0204C25.6667 34.8857 25.6667 34.549 25.5992 34.2796C25.4641 32.798 25.1939 30.1041 22.8974 28.151C22.8299 28.0837 22.6948 28.0837 22.6272 28.0837C22.4921 28.151 22.4921 28.151 22.4921 29.0939C22.4921 30.2388 22.4921 32.1918 22.222 33.3367C19.4527 31.3837 12.4281 26.0633 11.55 25.4571C10.1991 17.3082 6.55177 6.39796 0.405263 0.0673459C0.337719 -1.02864e-06 0.202632 0 0.135088 0C0.0675445 0.0673469 0 0.134695 0 0.269389C0.67544 3.43469 1.75614 8.14898 2.7693 12.7959C3.78246 17.4429 4.79562 22.1571 5.53861 25.3224C6.07896 27.6122 5.13334 39.2633 2.7693 44.0449C2.70176 44.1122 2.70176 44.1796 2.7693 44.2469C2.83685 44.3143 2.90439 44.3816 2.97193 44.3816C5.80878 44.7184 7.90265 39.7347 9.25353 36.4347C9.65879 35.4918 10.0641 34.4816 10.3342 34.1449C11.1448 35.2898 15.3325 40.8122 17.7641 42.9673C17.7641 43.5061 17.629 45.6612 16.9535 47.6143C16.9535 47.6816 16.9535 47.8163 17.0211 47.8837C17.0886 47.951 17.1562 47.951 17.2913 47.951C17.8316 47.8163 18.2369 47.6816 18.6421 47.5469C19.8579 47.2102 20.4658 47.0755 21.8843 45.8633C24.0457 47.4796 31.8132 52.6653 46.7404 55.2245C45.9299 58.0531 45.0518 61.6224 45.1194 65.5286C45.0518 65.6633 45.0518 65.798 45.1869 65.8653L45.2545 65.9326C45.322 65.9326 45.322 66 45.3896 66C45.4571 66 45.4571 66 45.5246 66C50.0501 63.7102 54.3729 59.9388 57.9527 55.0898C59.9115 54.8204 61.8027 54.349 63.6264 53.8102C66.801 52.8 69.7729 51.3857 72.3396 50.1061L82.2686 58.1877C83.0791 58.8612 83.7545 58.9959 84.2949 58.6592C84.5651 58.4571 84.7002 58.1204 84.8353 57.851C85.7133 55.6286 85.4431 53.1367 85.2405 50.9143L84.4975 42.9673C88.1449 40.0714 91.3195 36.502 94.0212 32.4612C94.0888 32.3939 94.0888 32.3939 94.0888 32.3265C95.98 29.4306 97.5335 26.3327 98.7493 23.1C98.8844 22.4265 99.1546 21.6184 98.8844 20.8102ZM51.7387 55.3592C49.8475 58.6592 47.7536 61.8918 45.5246 64.9224C45.5922 61.2857 46.4703 57.851 47.2132 55.2245C47.3483 54.4837 49.0369 49.8367 49.7124 48.9612C49.7799 48.8265 49.7799 48.6918 49.6448 48.6245C49.5097 48.5571 49.3747 48.5571 49.3071 48.6918C48.6317 49.5673 47.0782 53.7429 46.7404 54.9551C31.6781 52.3959 23.9781 47.1429 21.9518 45.5939C21.8843 45.5265 21.8843 45.5265 21.8843 45.5265C20.8035 44.9878 19.1825 44.1122 18.1693 42.8327C15.6027 40.6776 10.672 33.9429 10.6044 33.8755C10.5369 33.8082 10.5369 33.8082 10.4693 33.8082C10.0641 33.7408 9.79388 34.2796 9.05089 35.8959C9.25352 34.6837 9.45616 33.1347 9.38861 31.451C21.1413 41.5531 33.5018 46.2 48.9018 46.2C50.5229 46.2 52.2791 46.1326 53.9677 46.0653C54.1703 50.4429 52.4817 54.0122 51.7387 55.3592ZM84.6326 51.049C84.8353 53.2041 85.1054 55.6286 84.2274 57.7837C84.1598 57.9857 84.0247 58.2551 83.8896 58.3225C83.6195 58.5245 83.1467 58.3898 82.4712 57.851L72.7449 49.9041C76.73 48.1531 80.58 45.8633 83.8896 43.3714L84.6326 51.049ZM95.4397 28.8245C95.4397 28.0837 95.237 27.3429 94.4265 26.7367C92.3326 24.9857 89.1581 24.851 84.5651 26.2653C80.9177 27.4102 77.608 29.902 75.9194 32.8653C75.8519 33 75.8519 33.0673 75.987 33.202C76.0545 33.2694 76.1221 33.2694 76.1221 33.2694C76.1896 33.2694 76.2572 33.2694 76.2572 33.202C81.3905 29.3633 88.0098 29.1612 88.0774 29.1612C90.2388 29.0939 91.7923 29.4306 92.6028 30.2388C93.3458 30.9122 93.3458 31.7878 93.3458 32.2592C90.7116 36.3 87.4695 39.8694 83.8221 42.7653C80.3098 45.4592 76.2572 47.8163 72.0019 49.6347C69.3677 50.9143 66.3282 52.3959 63.1536 53.3388C61.5326 53.8775 59.7764 54.2143 58.0203 54.551C60.2492 50.6449 60.4519 46.8735 60.5194 44.7857C60.5194 44.5837 60.5194 44.3816 60.5194 44.1796C60.587 42.9 60.6545 41.6878 60.7221 40.4082C60.7896 39.1959 60.8571 37.9163 60.9247 36.6367V36.3C60.9247 35.4918 60.9922 34.6837 61.2624 33.9429C63.6264 27.8143 69.5703 24.1102 74.1633 22.0224C74.8387 21.6857 75.5142 21.4163 76.1896 21.1469C76.1896 21.2816 76.1221 21.4163 76.1221 21.6184C76.1221 22.8306 76.8651 23.7735 77.8107 23.7735C78.7563 23.7735 79.4993 22.7633 79.4993 21.6184C79.4993 21.0796 79.3642 20.5408 79.094 20.1367C82.4712 19.0592 85.2405 18.7225 86.2537 18.7225C91.1844 18.7225 94.6967 20.002 97.9388 23.1C97.3309 25.1204 96.4528 27.0061 95.4397 28.8245Z" fill="url(#paint0_linear_114_558)"/>
<defs>
<linearGradient id="paint0_linear_114_558" x1="49.5" y1="0" x2="49.5" y2="66" gradientUnits="userSpaceOnUse">
<stop stop-color="#C129E8"/>
<stop offset="0.208333" stop-color="#CA2AF2"/>
<stop offset="0.479167" stop-color="#F4D8FB"/>
<stop offset="0.817708" stop-color="#C039E1"/>
<stop offset="1" stop-color="#B618DE"/>
</linearGradient>
</defs>
</svg>
