<svg width="54" height="115" viewBox="0 0 54 115" fill="none" xmlns="http://www.w3.org/2000/svg">
<path fill-rule="evenodd" clip-rule="evenodd" d="M4 0H3V108H3.5C1.567 108 0 109.567 0 111.5C0 113.433 1.567 115 3.5 115C5.433 115 7 113.433 7 111.5C7 109.567 5.433 108 3.5 108H4V0Z" fill="url(#paint0_linear_308_528)" fill-opacity="0.3"/>
<path fill-rule="evenodd" clip-rule="evenodd" d="M28 0H27V83H27.5C25.567 83 24 84.567 24 86.5C24 88.433 25.567 90 27.5 90C29.433 90 31 88.433 31 86.5C31 84.567 29.433 83 27.5 83H28V0Z" fill="url(#paint1_linear_308_528)" fill-opacity="0.3"/>
<path fill-rule="evenodd" clip-rule="evenodd" d="M51 0H50V56H50.5C48.567 56 47 57.567 47 59.5C47 61.433 48.567 63 50.5 63C52.433 63 54 61.433 54 59.5C54 57.567 52.433 56 50.5 56H51V0Z" fill="url(#paint2_linear_308_528)" fill-opacity="0.3"/>
<defs>
<linearGradient id="paint0_linear_308_528" x1="-24.5" y1="70" x2="26.5" y2="70" gradientUnits="userSpaceOnUse">
<stop stop-color="#FED900"/>
<stop offset="1" stop-color="#0D0B04"/>
</linearGradient>
<linearGradient id="paint1_linear_308_528" x1="-0.499998" y1="45" x2="50.5" y2="45" gradientUnits="userSpaceOnUse">
<stop stop-color="#FED900"/>
<stop offset="1" stop-color="#0D0B04"/>
</linearGradient>
<linearGradient id="paint2_linear_308_528" x1="22.5" y1="18" x2="73.5" y2="18" gradientUnits="userSpaceOnUse">
<stop stop-color="#FED900"/>
<stop offset="1" stop-color="#0D0B04"/>
</linearGradient>
</defs>
</svg>
